<?xml version="1.0" encoding="UTF-8"?>
<!DOCTYPE svg PUBLIC "-//W3C//DTD SVG 1.1//EN" "http://www.w3.org/Graphics/SVG/1.1/DTD/svg11.dtd">
<svg version="1.1" xmlns="http://www.w3.org/2000/svg" xmlns:xlink="http://www.w3.org/1999/xlink" x="0" y="0" width="1000" height="400" viewBox="0, 0, 250, 100">
  <g id="Layer_1">
    <path d="M45.225,66.717 C35.992,66.717 28.508,59.233 28.508,50 C28.508,40.767 35.992,33.283 45.225,33.283 C54.458,33.283 61.942,40.767 61.942,50 C61.942,59.233 54.458,66.717 45.225,66.717 z" fill="#000000"/>
    <path d="M125,66.717 C115.767,66.717 108.283,59.233 108.283,50 C108.283,40.767 115.767,33.283 125,33.283 C134.233,33.283 141.717,40.767 141.717,50 C141.717,59.233 134.233,66.717 125,66.717 z" fill="#FFFFFF"/>
    <path d="M125,66.717 C115.767,66.717 108.283,59.233 108.283,50 C108.283,40.767 115.767,33.283 125,33.283 C134.233,33.283 141.717,40.767 141.717,50 C141.717,59.233 134.233,66.717 125,66.717 z" fill="#BC1818"/>
    <path d="M204.775,66.717 C195.542,66.717 188.058,59.233 188.058,50 C188.058,40.767 195.542,33.283 204.775,33.283 C214.008,33.283 221.492,40.767 221.492,50 C221.492,59.233 214.008,66.717 204.775,66.717 z" fill="#DCD602"/>
  </g>
</svg>
