<?xml version="1.0" encoding="UTF-8"?>
<!DOCTYPE svg PUBLIC "-//W3C//DTD SVG 1.1//EN" "http://www.w3.org/Graphics/SVG/1.1/DTD/svg11.dtd">
<svg version="1.1" xmlns="http://www.w3.org/2000/svg" xmlns:xlink="http://www.w3.org/1999/xlink" x="0" y="0" width="1200" height="1400" viewBox="0, 0, 300, 350">
  <g id="Layer_1" display="none">
    <path d="M-0,-0 L300,-0 L300,350 L-0,350 L-0,-0 z" fill="#340EB9"/>
  </g>
  <g id="Layer_2">
    <path d="M43.057,37.637 L257.943,37.637 C258.904,37.637 259.683,38.349 259.683,39.226 L259.683,311.774 C259.683,312.651 258.904,313.363 257.943,313.363 L43.057,313.363 C42.096,313.363 41.317,312.651 41.317,311.774 L41.317,39.226 C41.317,38.349 42.096,37.637 43.057,37.637 z" fill-opacity="0" stroke="#FFFFFF" stroke-width="18"/>
    <path d="M122.4,92.044 L232.596,92.044 L232.596,106.537 L122.4,106.537 L122.4,92.044 z" fill="#FFFFFF"/>
    <path d="M84.904,116.791 C75.239,116.791 67.404,108.956 67.404,99.291 C67.404,89.626 75.239,81.791 84.904,81.791 C94.569,81.791 102.404,89.626 102.404,99.291 C102.404,108.956 94.569,116.791 84.904,116.791 z" fill="#FFFFFF"/>
    <path d="M84.904,268.209 C75.239,268.209 67.404,260.374 67.404,250.709 C67.404,241.044 75.239,233.209 84.904,233.209 C94.569,233.209 102.404,241.044 102.404,250.709 C102.404,260.374 94.569,268.209 84.904,268.209 z" fill="#FFFFFF"/>
    <path d="M84.904,192.5 C75.239,192.5 67.404,184.665 67.404,175 C67.404,165.335 75.239,157.5 84.904,157.5 C94.569,157.5 102.404,165.335 102.404,175 C102.404,184.665 94.569,192.5 84.904,192.5 z" fill="#FFFFFF"/>
    <path d="M122.4,167.754 L232.596,167.754 L232.596,182.246 L122.4,182.246 L122.4,167.754 z" fill="#FFFFFF"/>
    <path d="M122.4,243.463 L232.596,243.463 L232.596,257.956 L122.4,257.956 L122.4,243.463 z" fill="#FFFFFF"/>
  </g>
</svg>
