<?xml version="1.0" encoding="UTF-8"?>
<!DOCTYPE svg PUBLIC "-//W3C//DTD SVG 1.1//EN" "http://www.w3.org/Graphics/SVG/1.1/DTD/svg11.dtd">
<svg version="1.1" xmlns="http://www.w3.org/2000/svg" xmlns:xlink="http://www.w3.org/1999/xlink" x="0" y="0" width="1400" height="1200" viewBox="0, 0, 350, 300">
  <g id="Layer_1" display="none">
    <path d="M0,0 L350,0 L350,300 L0,300 L0,0 z" fill="#2B24CD"/>
  </g>
  <g id="Layer_3">
    <path d="M234.38,37.819 L242.234,60.773 L259.842,49.25 L258.337,78.025 C274.368,90.678 283.121,104.34 290.248,123.195 L312.98,123.195 C316.403,123.195 319.178,125.518 319.178,128.383 L319.178,182.824 C319.178,185.689 316.403,188.012 312.981,188.012 L284.142,188.012 C276.461,203.336 263.997,215.651 249.944,225.189 L249.944,256.993 C249.944,259.858 248.609,262.181 246.963,262.181 L222.598,262.181 C220.952,262.181 219.618,259.858 219.618,256.993 L219.617,240.134 C204.884,245.599 189.172,247.419 173.557,247.744 C157.834,247.767 142.187,245.242 127.34,240.079 L127.34,256.993 C127.34,259.858 126.006,262.181 124.359,262.181 L99.995,262.181 C98.349,262.181 97.014,259.858 97.014,256.993 L97.014,225.083 C71.308,208.288 53.869,180.74 52.917,149.765 L30.822,108.523 L56.182,125.685 C65.501,90.356 98.396,65.395 132.064,55.273 C145.62,51.197 159.45,49.544 173.557,49.251 L173.557,49.251 C189.678,49.147 205.608,51.989 220.802,57.273 L234.38,37.819 z M255.196,103.915 C250.899,103.916 247.417,108.048 247.417,113.146 C247.417,118.244 250.899,122.377 255.196,122.377 C259.492,122.377 262.975,118.244 262.975,113.146 C262.975,108.048 259.492,103.916 255.196,103.915 L255.196,103.915 z M173.557,65.761 L173.557,65.761 C155.23,66.571 136.853,68.831 119.854,76.154 L119.854,88.138 C137.003,81.404 155.096,77.924 173.557,77.745 C191.949,77.992 210.271,81.029 227.26,88.296 L227.26,76.312 C210.142,69.535 192.048,65.543 173.557,65.761 z" fill="#FFFFFF"/>
  </g>
</svg>
